<svg width="630" height="631" viewBox="0 0 630 631" fill="none" xmlns="http://www.w3.org/2000/svg">
<g clip-path="url(#clip0_1_46)">
<circle cx="314.5" cy="315.5" r="315.5" fill="#2E4FC0"/>
<path d="M456.264 148.412L409.354 195.407L514.797 300.849L561.707 253.939C580.151 235.495 580.151 205.681 561.707 187.237L522.966 148.412C504.522 129.968 474.709 129.968 456.264 148.412ZM388.552 212.672L380.804 215.03L259.444 251.413C242.684 256.466 229.377 269.267 223.819 285.943L149.2 508.45C146 517.967 148.358 528.579 155.348 535.737L284.709 406.461C282.183 401.155 280.751 395.259 280.751 389.027C280.751 366.709 298.858 348.602 321.176 348.602C343.495 348.602 361.602 366.709 361.602 389.027C361.602 411.345 343.495 429.452 321.176 429.452C314.944 429.452 309.049 428.021 303.743 425.494L174.382 554.855C181.625 561.845 192.152 564.288 201.669 561.003L424.261 486.385C440.852 480.826 453.738 467.52 458.791 450.76L495.174 329.4L497.448 321.652L388.552 212.672Z" fill="white"/>
<path d="M193.744 69.6699C193.744 63.3267 188.619 58.2019 182.276 58.2019C175.933 58.2019 170.808 63.3267 170.808 69.6699V121.276H119.202C112.859 121.276 107.734 126.401 107.734 132.744C107.734 139.087 112.859 144.212 119.202 144.212H170.808V195.818C170.808 202.161 175.933 207.286 182.276 207.286C188.619 207.286 193.744 202.161 193.744 195.818V144.212H245.35C251.693 144.212 256.818 139.087 256.818 132.744C256.818 126.401 251.693 121.276 245.35 121.276H193.744V69.6699Z" fill="white"/>
</g>
<defs>
<clipPath id="clip0_1_46">
<rect width="630" height="631" fill="white"/>
</clipPath>
</defs>
</svg>
