<svg width="1100" height="1100" viewBox="0 0 1100 1100" fill="none" xmlns="http://www.w3.org/2000/svg">
<circle cx="550" cy="550" r="550" fill="white"/>
<path d="M414.5 387.4C414.5 327.611 463.111 279 522.9 279H577.1C636.889 279 685.5 327.611 685.5 387.4V393.498C685.5 430.421 666.699 464.804 635.704 484.621L564.228 530.522C521.545 557.961 495.8 605.216 495.8 655.859V658.231C495.8 688.21 520.021 712.431 550 712.431C579.979 712.431 604.2 688.21 604.2 658.231V655.859C604.2 641.971 611.314 629.098 622.831 621.646L694.308 575.745C756.299 535.773 793.9 467.176 793.9 393.328V387.231C793.9 267.483 696.848 170.431 577.1 170.431H522.9C403.152 170.6 306.1 267.652 306.1 387.4C306.1 417.379 330.321 441.6 360.3 441.6C390.279 441.6 414.5 417.379 414.5 387.4ZM550 929.4C567.969 929.4 585.201 922.262 597.907 909.556C610.612 896.851 617.75 879.618 617.75 861.65C617.75 843.682 610.612 826.449 597.907 813.744C585.201 801.038 567.969 793.9 550 793.9C532.032 793.9 514.799 801.038 502.094 813.744C489.388 826.449 482.25 843.682 482.25 861.65C482.25 879.618 489.388 896.851 502.094 909.556C514.799 922.262 532.032 929.4 550 929.4Z" fill="black"/>
</svg>
