<svg width="1100" height="1100" viewBox="0 0 1100 1100" fill="none" xmlns="http://www.w3.org/2000/svg">
<circle cx="550" cy="550" r="550" fill="white"/>
<g clip-path="url(#clip0_17_773)">
<mask id="mask0_17_773" style="mask-type:alpha" maskUnits="userSpaceOnUse" x="51" y="51" width="998" height="998">
<circle cx="550" cy="550" r="499" fill="#A65858"/>
</mask>
<g mask="url(#mask0_17_773)">
<path d="M812.205 304.929C768.195 203.668 667.291 133 549.75 133C432.209 133 331.305 203.668 287.295 304.929C257.954 307.434 234.875 331.944 234.875 362V476.5C234.875 506.556 257.954 531.066 287.295 533.571C331.305 634.832 432.209 705.5 549.75 705.5C667.291 705.5 768.195 634.832 812.205 533.571C841.546 531.066 864.625 506.556 864.625 476.5V362C864.625 331.944 841.546 307.434 812.205 304.929ZM750.125 390.625V419.25C750.125 514.07 673.195 591 578.375 591H521.125C426.305 591 349.375 514.07 349.375 419.25V390.625C349.375 343.215 387.84 304.75 435.25 304.75H664.25C711.66 304.75 750.125 343.215 750.125 390.625ZM487.67 424.08L476.935 386.152C475.325 380.248 469.958 376.312 463.875 376.312C457.792 376.312 452.425 380.248 450.815 386.152L440.08 424.08L402.152 434.815C396.248 436.425 392.312 441.792 392.312 447.875C392.312 453.958 396.248 459.325 402.152 460.935L440.08 471.67L450.815 509.598C452.425 515.502 457.792 519.438 463.875 519.438C469.958 519.438 475.325 515.502 476.935 509.598L487.67 471.67L525.598 460.935C531.502 459.325 535.438 453.958 535.438 447.875C535.438 441.792 531.502 436.425 525.598 434.815L487.67 424.08ZM350.627 699.238C232.549 745.933 149 861.148 149 995.865C149 1025.21 172.795 1049 202.135 1049H378V934.5C378 902.834 403.584 877.25 435.25 877.25H664.25C695.916 877.25 721.5 902.834 721.5 934.5V1049H897.365C926.705 1049 950.5 1025.21 950.5 995.865C950.5 861.148 866.951 745.933 748.873 699.238C692.696 739.134 623.996 762.75 549.75 762.75C475.504 762.75 406.804 739.134 350.627 699.238ZM463.875 934.5C448.131 934.5 435.25 947.381 435.25 963.125V1049H492.5V963.125C492.5 947.381 479.619 934.5 463.875 934.5ZM635.625 991.75C643.217 991.75 650.498 988.734 655.866 983.366C661.234 977.998 664.25 970.717 664.25 963.125C664.25 955.533 661.234 948.252 655.866 942.884C650.498 937.516 643.217 934.5 635.625 934.5C628.033 934.5 620.752 937.516 615.384 942.884C610.016 948.252 607 955.533 607 963.125C607 970.717 610.016 977.998 615.384 983.366C620.752 988.734 628.033 991.75 635.625 991.75Z" fill="#201D1D"/>
</g>
</g>
<defs>
<clipPath id="clip0_17_773">
<rect width="801.5" height="916" fill="white" transform="translate(149 133)"/>
</clipPath>
</defs>
</svg>
