<svg xmlns="http://www.w3.org/2000/svg" xmlns:xlink="http://www.w3.org/1999/xlink" width="500" zoomAndPan="magnify" viewBox="0 0 375 374.999991" height="500" preserveAspectRatio="xMidYMid meet" version="1.0"><defs><g/><clipPath id="deda949e16"><path d="M 44.882812 37.5 L 329.882812 37.5 L 329.882812 323 L 44.882812 323 Z M 44.882812 37.5 " clip-rule="nonzero"/></clipPath><clipPath id="90708906ba"><path d="M 82 37.5 L 323 37.5 L 323 299 L 82 299 Z M 82 37.5 " clip-rule="nonzero"/></clipPath></defs><rect x="-37.5" width="450" fill="#ffffff" y="-37.499999" height="449.999989" fill-opacity="1"/><rect x="-37.5" width="450" fill="#ffffff" y="-37.499999" height="449.999989" fill-opacity="1"/><g fill="#ffffff" fill-opacity="1"><g transform="translate(68.589844, 350.626062)"><g><path d="M 25.046875 -18.453125 C 26.578125 -17.648438 27.769531 -16.523438 28.625 -15.078125 C 29.476562 -13.628906 29.90625 -11.96875 29.90625 -10.09375 C 29.90625 -8.226562 29.410156 -6.53125 28.421875 -5 C 27.441406 -3.46875 26.109375 -2.25 24.421875 -1.34375 C 22.742188 -0.445312 20.90625 0 18.90625 0 L 4 0 L 4 -35 L 18.5 -35 C 20.5 -35 22.289062 -34.609375 23.875 -33.828125 C 25.457031 -33.046875 26.707031 -31.96875 27.625 -30.59375 C 28.539062 -29.226562 29 -27.695312 29 -26 C 29 -24.5 28.648438 -23.082031 27.953125 -21.75 C 27.253906 -20.414062 26.285156 -19.316406 25.046875 -18.453125 Z M 21.65625 -24.796875 C 21.65625 -25.898438 21.300781 -26.800781 20.59375 -27.5 C 19.894531 -28.195312 18.945312 -28.546875 17.75 -28.546875 L 11.453125 -28.546875 L 11.453125 -21.09375 L 17.75 -21.09375 C 18.945312 -21.09375 19.894531 -21.441406 20.59375 -22.140625 C 21.300781 -22.847656 21.65625 -23.734375 21.65625 -24.796875 Z M 18.15625 -6.953125 C 19.414062 -6.953125 20.421875 -7.316406 21.171875 -8.046875 C 21.921875 -8.785156 22.296875 -9.738281 22.296875 -10.90625 C 22.296875 -12.03125 21.921875 -12.957031 21.171875 -13.6875 C 20.421875 -14.425781 19.414062 -14.796875 18.15625 -14.796875 L 11.453125 -14.796875 L 11.453125 -6.953125 Z M 18.15625 -6.953125 "/></g></g></g><g fill="#ffffff" fill-opacity="1"><g transform="translate(100.684877, 350.626062)"><g><path d="M 3.5 0 L 3.5 -36.75 L 10.796875 -36.75 L 10.796875 0 Z M 3.5 0 "/></g></g></g><g fill="#ffffff" fill-opacity="1"><g transform="translate(114.982667, 350.626062)"><g><path d="M 25.546875 -27.046875 L 31 -27.046875 L 31 -0.046875 L 25.25 -0.046875 L 24.65625 -2.453125 C 23.488281 -1.453125 22.160156 -0.664062 20.671875 -0.09375 C 19.191406 0.46875 17.601562 0.75 15.90625 0.75 C 13.195312 0.75 10.773438 0.125 8.640625 -1.125 C 6.515625 -2.375 4.832031 -4.070312 3.59375 -6.21875 C 2.363281 -8.375 1.75 -10.816406 1.75 -13.546875 C 1.75 -16.242188 2.363281 -18.664062 3.59375 -20.8125 C 4.832031 -22.96875 6.515625 -24.660156 8.640625 -25.890625 C 10.773438 -27.128906 13.195312 -27.75 15.90625 -27.75 C 17.632812 -27.75 19.25 -27.457031 20.75 -26.875 C 22.25 -26.289062 23.582031 -25.484375 24.75 -24.453125 Z M 16.5 -6.15625 C 17.894531 -6.15625 19.148438 -6.46875 20.265625 -7.09375 C 21.390625 -7.726562 22.265625 -8.601562 22.890625 -9.71875 C 23.523438 -10.84375 23.84375 -12.117188 23.84375 -13.546875 C 23.84375 -14.953125 23.523438 -16.210938 22.890625 -17.328125 C 22.265625 -18.441406 21.390625 -19.320312 20.265625 -19.96875 C 19.148438 -20.625 17.894531 -20.953125 16.5 -20.953125 C 15.0625 -20.953125 13.789062 -20.625 12.6875 -19.96875 C 11.59375 -19.320312 10.726562 -18.441406 10.09375 -17.328125 C 9.46875 -16.210938 9.15625 -14.953125 9.15625 -13.546875 C 9.15625 -12.117188 9.46875 -10.851562 10.09375 -9.75 C 10.726562 -8.644531 11.59375 -7.769531 12.6875 -7.125 C 13.789062 -6.476562 15.0625 -6.15625 16.5 -6.15625 Z M 16.5 -6.15625 "/></g></g></g><g fill="#ffffff" fill-opacity="1"><g transform="translate(149.477332, 350.626062)"><g><path d="M 18.953125 -27.65625 C 22.015625 -27.65625 24.425781 -26.632812 26.1875 -24.59375 C 27.957031 -22.5625 28.84375 -19.832031 28.84375 -16.40625 L 28.84375 0 L 21.546875 0 L 21.546875 -15.203125 C 21.546875 -17.203125 21.175781 -18.707031 20.4375 -19.71875 C 19.707031 -20.738281 18.507812 -21.25 16.84375 -21.25 C 15.050781 -21.25 13.59375 -20.625 12.46875 -19.375 C 11.351562 -18.125 10.796875 -16.398438 10.796875 -14.203125 L 10.796875 0 L 3.5 0 L 3.5 -36.75 L 10.796875 -36.75 L 10.796875 -24.5 C 11.828125 -25.46875 13.039062 -26.234375 14.4375 -26.796875 C 15.84375 -27.367188 17.347656 -27.65625 18.953125 -27.65625 Z M 18.953125 -27.65625 "/></g></g></g><g fill="#ffffff" fill-opacity="1"><g transform="translate(181.522366, 350.626062)"><g/></g></g><g fill="#ffffff" fill-opacity="1"><g transform="translate(193.470512, 350.626062)"><g><path d="M 25.046875 -18.453125 C 26.578125 -17.648438 27.769531 -16.523438 28.625 -15.078125 C 29.476562 -13.628906 29.90625 -11.96875 29.90625 -10.09375 C 29.90625 -8.226562 29.410156 -6.53125 28.421875 -5 C 27.441406 -3.46875 26.109375 -2.25 24.421875 -1.34375 C 22.742188 -0.445312 20.90625 0 18.90625 0 L 4 0 L 4 -35 L 18.5 -35 C 20.5 -35 22.289062 -34.609375 23.875 -33.828125 C 25.457031 -33.046875 26.707031 -31.96875 27.625 -30.59375 C 28.539062 -29.226562 29 -27.695312 29 -26 C 29 -24.5 28.648438 -23.082031 27.953125 -21.75 C 27.253906 -20.414062 26.285156 -19.316406 25.046875 -18.453125 Z M 21.65625 -24.796875 C 21.65625 -25.898438 21.300781 -26.800781 20.59375 -27.5 C 19.894531 -28.195312 18.945312 -28.546875 17.75 -28.546875 L 11.453125 -28.546875 L 11.453125 -21.09375 L 17.75 -21.09375 C 18.945312 -21.09375 19.894531 -21.441406 20.59375 -22.140625 C 21.300781 -22.847656 21.65625 -23.734375 21.65625 -24.796875 Z M 18.15625 -6.953125 C 19.414062 -6.953125 20.421875 -7.316406 21.171875 -8.046875 C 21.921875 -8.785156 22.296875 -9.738281 22.296875 -10.90625 C 22.296875 -12.03125 21.921875 -12.957031 21.171875 -13.6875 C 20.421875 -14.425781 19.414062 -14.796875 18.15625 -14.796875 L 11.453125 -14.796875 L 11.453125 -6.953125 Z M 18.15625 -6.953125 "/></g></g></g><g fill="#ffffff" fill-opacity="1"><g transform="translate(225.565545, 350.626062)"><g><path d="M 3.5 0 L 3.5 -36.75 L 10.796875 -36.75 L 10.796875 0 Z M 3.5 0 "/></g></g></g><g fill="#ffffff" fill-opacity="1"><g transform="translate(239.863335, 350.626062)"><g><path d="M 25.546875 -27.046875 L 31 -27.046875 L 31 -0.046875 L 25.25 -0.046875 L 24.65625 -2.453125 C 23.488281 -1.453125 22.160156 -0.664062 20.671875 -0.09375 C 19.191406 0.46875 17.601562 0.75 15.90625 0.75 C 13.195312 0.75 10.773438 0.125 8.640625 -1.125 C 6.515625 -2.375 4.832031 -4.070312 3.59375 -6.21875 C 2.363281 -8.375 1.75 -10.816406 1.75 -13.546875 C 1.75 -16.242188 2.363281 -18.664062 3.59375 -20.8125 C 4.832031 -22.96875 6.515625 -24.660156 8.640625 -25.890625 C 10.773438 -27.128906 13.195312 -27.75 15.90625 -27.75 C 17.632812 -27.75 19.25 -27.457031 20.75 -26.875 C 22.25 -26.289062 23.582031 -25.484375 24.75 -24.453125 Z M 16.5 -6.15625 C 17.894531 -6.15625 19.148438 -6.46875 20.265625 -7.09375 C 21.390625 -7.726562 22.265625 -8.601562 22.890625 -9.71875 C 23.523438 -10.84375 23.84375 -12.117188 23.84375 -13.546875 C 23.84375 -14.953125 23.523438 -16.210938 22.890625 -17.328125 C 22.265625 -18.441406 21.390625 -19.320312 20.265625 -19.96875 C 19.148438 -20.625 17.894531 -20.953125 16.5 -20.953125 C 15.0625 -20.953125 13.789062 -20.625 12.6875 -19.96875 C 11.59375 -19.320312 10.726562 -18.441406 10.09375 -17.328125 C 9.46875 -16.210938 9.15625 -14.953125 9.15625 -13.546875 C 9.15625 -12.117188 9.46875 -10.851562 10.09375 -9.75 C 10.726562 -8.644531 11.59375 -7.769531 12.6875 -7.125 C 13.789062 -6.476562 15.0625 -6.15625 16.5 -6.15625 Z M 16.5 -6.15625 "/></g></g></g><g fill="#ffffff" fill-opacity="1"><g transform="translate(274.357989, 350.626062)"><g><path d="M 18.953125 -27.65625 C 22.015625 -27.65625 24.425781 -26.632812 26.1875 -24.59375 C 27.957031 -22.5625 28.84375 -19.832031 28.84375 -16.40625 L 28.84375 0 L 21.546875 0 L 21.546875 -15.203125 C 21.546875 -17.203125 21.175781 -18.707031 20.4375 -19.71875 C 19.707031 -20.738281 18.507812 -21.25 16.84375 -21.25 C 15.050781 -21.25 13.59375 -20.625 12.46875 -19.375 C 11.351562 -18.125 10.796875 -16.398438 10.796875 -14.203125 L 10.796875 0 L 3.5 0 L 3.5 -36.75 L 10.796875 -36.75 L 10.796875 -24.5 C 11.828125 -25.46875 13.039062 -26.234375 14.4375 -26.796875 C 15.84375 -27.367188 17.347656 -27.65625 18.953125 -27.65625 Z M 18.953125 -27.65625 "/></g></g></g><g clip-path="url(#deda949e16)"><path fill="#ffffff" d="M 44.882812 37.535156 L 330.105469 37.535156 L 330.105469 322.757812 L 44.882812 322.757812 Z M 44.882812 37.535156 " fill-opacity="1" fill-rule="nonzero"/></g><g clip-path="url(#90708906ba)"><path fill="#128f8b" d="M 197.25 267.820312 C 133.929688 267.59375 82.53125 216.140625 82.53125 152.761719 C 82.53125 89.214844 134.101562 37.648438 197.589844 37.648438 C 261.082031 37.648438 312.648438 89.214844 312.648438 152.707031 C 312.648438 186.363281 298.160156 216.652344 275.171875 237.703125 L 322.289062 298.226562 L 197.589844 267.820312 Z M 197.25 267.820312 " fill-opacity="1" fill-rule="nonzero"/></g><path fill="#00253b" d="M 174.714844 292.238281 L 298.503906 322.414062 C 301.8125 323.210938 305.292969 321.84375 307.117188 318.992188 C 308.941406 316.140625 308.828125 312.375 306.71875 309.691406 C 306.71875 309.691406 275.742188 269.875 263.992188 254.875 C 285.496094 232.683594 298.789062 202.449219 298.789062 169.136719 C 298.789062 101.195312 243.625 46.03125 175.6875 46.03125 C 107.746094 46.03125 52.582031 101.195312 52.582031 169.136719 C 52.582031 236.734375 107.234375 291.667969 174.714844 292.238281 Z M 175.34375 276.207031 C 116.417969 275.980469 68.671875 228.121094 68.671875 169.136719 C 68.671875 110.035156 116.585938 62.0625 175.6875 62.0625 C 234.785156 62.0625 282.757812 110.035156 282.757812 169.136719 C 282.757812 200.453125 269.296875 228.574219 247.847656 248.199219 C 244.765625 250.992188 244.367188 255.730469 246.933594 259.039062 L 279.90625 301.363281 L 177.570312 276.4375 C 176.941406 276.265625 176.3125 276.207031 175.6875 276.207031 Z M 175.34375 276.207031 " fill-opacity="1" fill-rule="nonzero"/><path fill="#00253b" d="M 111.453125 155.214844 L 152.242188 155.214844 C 156.691406 155.214844 160.285156 151.621094 160.285156 147.171875 C 160.285156 142.722656 156.691406 139.128906 152.242188 139.128906 L 111.453125 139.128906 C 107.003906 139.128906 103.410156 142.722656 103.410156 147.171875 C 103.410156 151.621094 107.003906 155.214844 111.453125 155.214844 Z M 111.453125 155.214844 " fill-opacity="1" fill-rule="nonzero"/><path fill="#00253b" d="M 111.453125 193.722656 L 176.3125 193.722656 C 180.761719 193.722656 184.355469 190.128906 184.355469 185.679688 C 184.355469 181.230469 180.761719 177.636719 176.3125 177.636719 L 111.453125 177.636719 C 107.003906 177.636719 103.410156 181.230469 103.410156 185.679688 C 103.410156 190.128906 107.003906 193.722656 111.453125 193.722656 Z M 111.453125 193.722656 " fill-opacity="1" fill-rule="nonzero"/><path fill="#00253b" d="M 207.574219 193.722656 L 232.503906 193.722656 C 236.953125 193.722656 240.546875 190.128906 240.546875 185.679688 C 240.546875 181.230469 236.953125 177.636719 232.503906 177.636719 L 207.574219 177.636719 C 203.125 177.636719 199.53125 181.230469 199.53125 185.679688 C 199.53125 190.128906 203.125 193.722656 207.574219 193.722656 Z M 207.574219 193.722656 " fill-opacity="1" fill-rule="nonzero"/><path fill="#00253b" d="M 176.257812 155.214844 L 238.777344 155.214844 C 243.226562 155.214844 246.820312 151.621094 246.820312 147.171875 C 246.820312 142.722656 243.226562 139.128906 238.777344 139.128906 L 176.257812 139.128906 C 171.808594 139.128906 168.214844 142.722656 168.214844 147.171875 C 168.269531 151.621094 171.863281 155.214844 176.257812 155.214844 Z M 176.257812 155.214844 " fill-opacity="1" fill-rule="nonzero"/></svg>