<svg xmlns="http://www.w3.org/2000/svg" xmlns:xlink="http://www.w3.org/1999/xlink" width="500" zoomAndPan="magnify" viewBox="0 0 375 374.999991" height="500" preserveAspectRatio="xMidYMid meet" version="1.0"><defs><g/><clipPath id="98ba32e33c"><path d="M 44.882812 16.761719 L 329.882812 16.761719 L 329.882812 302.484375 L 44.882812 302.484375 Z M 44.882812 16.761719 " clip-rule="nonzero"/></clipPath><clipPath id="998a2f2ef8"><path d="M 82 16.761719 L 323 16.761719 L 323 278 L 82 278 Z M 82 16.761719 " clip-rule="nonzero"/></clipPath></defs><rect x="-37.5" width="450" fill="#ffffff" y="-37.499999" height="449.999989" fill-opacity="1"/><rect x="-37.5" width="450" fill="#ffffff" y="-37.499999" height="449.999989" fill-opacity="1"/><g fill="#00253b" fill-opacity="1"><g transform="translate(68.589844, 350.626062)"><g><path d="M 25.046875 -18.453125 C 26.578125 -17.648438 27.769531 -16.523438 28.625 -15.078125 C 29.476562 -13.628906 29.90625 -11.96875 29.90625 -10.09375 C 29.90625 -8.226562 29.410156 -6.53125 28.421875 -5 C 27.441406 -3.46875 26.109375 -2.25 24.421875 -1.34375 C 22.742188 -0.445312 20.90625 0 18.90625 0 L 4 0 L 4 -35 L 18.5 -35 C 20.5 -35 22.289062 -34.609375 23.875 -33.828125 C 25.457031 -33.046875 26.707031 -31.96875 27.625 -30.59375 C 28.539062 -29.226562 29 -27.695312 29 -26 C 29 -24.5 28.648438 -23.082031 27.953125 -21.75 C 27.253906 -20.414062 26.285156 -19.316406 25.046875 -18.453125 Z M 21.65625 -24.796875 C 21.65625 -25.898438 21.300781 -26.800781 20.59375 -27.5 C 19.894531 -28.195312 18.945312 -28.546875 17.75 -28.546875 L 11.453125 -28.546875 L 11.453125 -21.09375 L 17.75 -21.09375 C 18.945312 -21.09375 19.894531 -21.441406 20.59375 -22.140625 C 21.300781 -22.847656 21.65625 -23.734375 21.65625 -24.796875 Z M 18.15625 -6.953125 C 19.414062 -6.953125 20.421875 -7.316406 21.171875 -8.046875 C 21.921875 -8.785156 22.296875 -9.738281 22.296875 -10.90625 C 22.296875 -12.03125 21.921875 -12.957031 21.171875 -13.6875 C 20.421875 -14.425781 19.414062 -14.796875 18.15625 -14.796875 L 11.453125 -14.796875 L 11.453125 -6.953125 Z M 18.15625 -6.953125 "/></g></g></g><g fill="#00253b" fill-opacity="1"><g transform="translate(100.684877, 350.626062)"><g><path d="M 3.5 0 L 3.5 -36.75 L 10.796875 -36.75 L 10.796875 0 Z M 3.5 0 "/></g></g></g><g fill="#00253b" fill-opacity="1"><g transform="translate(114.982667, 350.626062)"><g><path d="M 25.546875 -27.046875 L 31 -27.046875 L 31 -0.046875 L 25.25 -0.046875 L 24.65625 -2.453125 C 23.488281 -1.453125 22.160156 -0.664062 20.671875 -0.09375 C 19.191406 0.46875 17.601562 0.75 15.90625 0.75 C 13.195312 0.75 10.773438 0.125 8.640625 -1.125 C 6.515625 -2.375 4.832031 -4.070312 3.59375 -6.21875 C 2.363281 -8.375 1.75 -10.816406 1.75 -13.546875 C 1.75 -16.242188 2.363281 -18.664062 3.59375 -20.8125 C 4.832031 -22.96875 6.515625 -24.660156 8.640625 -25.890625 C 10.773438 -27.128906 13.195312 -27.75 15.90625 -27.75 C 17.632812 -27.75 19.25 -27.457031 20.75 -26.875 C 22.25 -26.289062 23.582031 -25.484375 24.75 -24.453125 Z M 16.5 -6.15625 C 17.894531 -6.15625 19.148438 -6.46875 20.265625 -7.09375 C 21.390625 -7.726562 22.265625 -8.601562 22.890625 -9.71875 C 23.523438 -10.84375 23.84375 -12.117188 23.84375 -13.546875 C 23.84375 -14.953125 23.523438 -16.210938 22.890625 -17.328125 C 22.265625 -18.441406 21.390625 -19.320312 20.265625 -19.96875 C 19.148438 -20.625 17.894531 -20.953125 16.5 -20.953125 C 15.0625 -20.953125 13.789062 -20.625 12.6875 -19.96875 C 11.59375 -19.320312 10.726562 -18.441406 10.09375 -17.328125 C 9.46875 -16.210938 9.15625 -14.953125 9.15625 -13.546875 C 9.15625 -12.117188 9.46875 -10.851562 10.09375 -9.75 C 10.726562 -8.644531 11.59375 -7.769531 12.6875 -7.125 C 13.789062 -6.476562 15.0625 -6.15625 16.5 -6.15625 Z M 16.5 -6.15625 "/></g></g></g><g fill="#00253b" fill-opacity="1"><g transform="translate(149.477332, 350.626062)"><g><path d="M 18.953125 -27.65625 C 22.015625 -27.65625 24.425781 -26.632812 26.1875 -24.59375 C 27.957031 -22.5625 28.84375 -19.832031 28.84375 -16.40625 L 28.84375 0 L 21.546875 0 L 21.546875 -15.203125 C 21.546875 -17.203125 21.175781 -18.707031 20.4375 -19.71875 C 19.707031 -20.738281 18.507812 -21.25 16.84375 -21.25 C 15.050781 -21.25 13.59375 -20.625 12.46875 -19.375 C 11.351562 -18.125 10.796875 -16.398438 10.796875 -14.203125 L 10.796875 0 L 3.5 0 L 3.5 -36.75 L 10.796875 -36.75 L 10.796875 -24.5 C 11.828125 -25.46875 13.039062 -26.234375 14.4375 -26.796875 C 15.84375 -27.367188 17.347656 -27.65625 18.953125 -27.65625 Z M 18.953125 -27.65625 "/></g></g></g><g fill="#00253b" fill-opacity="1"><g transform="translate(181.522366, 350.626062)"><g/></g></g><g fill="#00253b" fill-opacity="1"><g transform="translate(193.470512, 350.626062)"><g><path d="M 25.046875 -18.453125 C 26.578125 -17.648438 27.769531 -16.523438 28.625 -15.078125 C 29.476562 -13.628906 29.90625 -11.96875 29.90625 -10.09375 C 29.90625 -8.226562 29.410156 -6.53125 28.421875 -5 C 27.441406 -3.46875 26.109375 -2.25 24.421875 -1.34375 C 22.742188 -0.445312 20.90625 0 18.90625 0 L 4 0 L 4 -35 L 18.5 -35 C 20.5 -35 22.289062 -34.609375 23.875 -33.828125 C 25.457031 -33.046875 26.707031 -31.96875 27.625 -30.59375 C 28.539062 -29.226562 29 -27.695312 29 -26 C 29 -24.5 28.648438 -23.082031 27.953125 -21.75 C 27.253906 -20.414062 26.285156 -19.316406 25.046875 -18.453125 Z M 21.65625 -24.796875 C 21.65625 -25.898438 21.300781 -26.800781 20.59375 -27.5 C 19.894531 -28.195312 18.945312 -28.546875 17.75 -28.546875 L 11.453125 -28.546875 L 11.453125 -21.09375 L 17.75 -21.09375 C 18.945312 -21.09375 19.894531 -21.441406 20.59375 -22.140625 C 21.300781 -22.847656 21.65625 -23.734375 21.65625 -24.796875 Z M 18.15625 -6.953125 C 19.414062 -6.953125 20.421875 -7.316406 21.171875 -8.046875 C 21.921875 -8.785156 22.296875 -9.738281 22.296875 -10.90625 C 22.296875 -12.03125 21.921875 -12.957031 21.171875 -13.6875 C 20.421875 -14.425781 19.414062 -14.796875 18.15625 -14.796875 L 11.453125 -14.796875 L 11.453125 -6.953125 Z M 18.15625 -6.953125 "/></g></g></g><g fill="#00253b" fill-opacity="1"><g transform="translate(225.565545, 350.626062)"><g><path d="M 3.5 0 L 3.5 -36.75 L 10.796875 -36.75 L 10.796875 0 Z M 3.5 0 "/></g></g></g><g fill="#00253b" fill-opacity="1"><g transform="translate(239.863335, 350.626062)"><g><path d="M 25.546875 -27.046875 L 31 -27.046875 L 31 -0.046875 L 25.25 -0.046875 L 24.65625 -2.453125 C 23.488281 -1.453125 22.160156 -0.664062 20.671875 -0.09375 C 19.191406 0.46875 17.601562 0.75 15.90625 0.75 C 13.195312 0.75 10.773438 0.125 8.640625 -1.125 C 6.515625 -2.375 4.832031 -4.070312 3.59375 -6.21875 C 2.363281 -8.375 1.75 -10.816406 1.75 -13.546875 C 1.75 -16.242188 2.363281 -18.664062 3.59375 -20.8125 C 4.832031 -22.96875 6.515625 -24.660156 8.640625 -25.890625 C 10.773438 -27.128906 13.195312 -27.75 15.90625 -27.75 C 17.632812 -27.75 19.25 -27.457031 20.75 -26.875 C 22.25 -26.289062 23.582031 -25.484375 24.75 -24.453125 Z M 16.5 -6.15625 C 17.894531 -6.15625 19.148438 -6.46875 20.265625 -7.09375 C 21.390625 -7.726562 22.265625 -8.601562 22.890625 -9.71875 C 23.523438 -10.84375 23.84375 -12.117188 23.84375 -13.546875 C 23.84375 -14.953125 23.523438 -16.210938 22.890625 -17.328125 C 22.265625 -18.441406 21.390625 -19.320312 20.265625 -19.96875 C 19.148438 -20.625 17.894531 -20.953125 16.5 -20.953125 C 15.0625 -20.953125 13.789062 -20.625 12.6875 -19.96875 C 11.59375 -19.320312 10.726562 -18.441406 10.09375 -17.328125 C 9.46875 -16.210938 9.15625 -14.953125 9.15625 -13.546875 C 9.15625 -12.117188 9.46875 -10.851562 10.09375 -9.75 C 10.726562 -8.644531 11.59375 -7.769531 12.6875 -7.125 C 13.789062 -6.476562 15.0625 -6.15625 16.5 -6.15625 Z M 16.5 -6.15625 "/></g></g></g><g fill="#00253b" fill-opacity="1"><g transform="translate(274.357989, 350.626062)"><g><path d="M 18.953125 -27.65625 C 22.015625 -27.65625 24.425781 -26.632812 26.1875 -24.59375 C 27.957031 -22.5625 28.84375 -19.832031 28.84375 -16.40625 L 28.84375 0 L 21.546875 0 L 21.546875 -15.203125 C 21.546875 -17.203125 21.175781 -18.707031 20.4375 -19.71875 C 19.707031 -20.738281 18.507812 -21.25 16.84375 -21.25 C 15.050781 -21.25 13.59375 -20.625 12.46875 -19.375 C 11.351562 -18.125 10.796875 -16.398438 10.796875 -14.203125 L 10.796875 0 L 3.5 0 L 3.5 -36.75 L 10.796875 -36.75 L 10.796875 -24.5 C 11.828125 -25.46875 13.039062 -26.234375 14.4375 -26.796875 C 15.84375 -27.367188 17.347656 -27.65625 18.953125 -27.65625 Z M 18.953125 -27.65625 "/></g></g></g><g clip-path="url(#98ba32e33c)"><path fill="#ffffff" d="M 44.882812 16.792969 L 330.105469 16.792969 L 330.105469 302.015625 L 44.882812 302.015625 Z M 44.882812 16.792969 " fill-opacity="1" fill-rule="nonzero"/></g><g clip-path="url(#998a2f2ef8)"><path fill="#128f8b" d="M 197.25 247.082031 C 133.929688 246.855469 82.53125 195.398438 82.53125 132.023438 C 82.53125 68.476562 134.101562 16.90625 197.589844 16.90625 C 261.082031 16.90625 312.648438 68.476562 312.648438 131.964844 C 312.648438 165.621094 298.160156 195.914062 275.171875 216.960938 L 322.289062 277.488281 L 197.589844 247.082031 Z M 197.25 247.082031 " fill-opacity="1" fill-rule="nonzero"/></g><path fill="#00253b" d="M 174.714844 271.496094 L 298.503906 301.675781 C 301.8125 302.472656 305.292969 301.105469 307.117188 298.25 C 308.941406 295.398438 308.828125 291.632812 306.71875 288.953125 C 306.71875 288.953125 275.742188 249.136719 263.992188 234.132812 C 285.496094 211.941406 298.789062 181.710938 298.789062 148.394531 C 298.789062 80.457031 243.625 25.292969 175.6875 25.292969 C 107.746094 25.292969 52.582031 80.457031 52.582031 148.394531 C 52.582031 215.992188 107.234375 270.925781 174.714844 271.496094 Z M 175.34375 255.46875 C 116.417969 255.238281 68.671875 207.378906 68.671875 148.394531 C 68.671875 89.296875 116.585938 41.324219 175.6875 41.324219 C 234.785156 41.324219 282.757812 89.296875 282.757812 148.394531 C 282.757812 179.710938 269.296875 207.835938 247.847656 227.460938 C 244.765625 230.253906 244.367188 234.988281 246.933594 238.296875 L 279.90625 280.625 L 177.570312 255.695312 C 176.941406 255.523438 176.3125 255.46875 175.6875 255.46875 Z M 175.34375 255.46875 " fill-opacity="1" fill-rule="nonzero"/><path fill="#00253b" d="M 111.453125 134.476562 L 152.242188 134.476562 C 156.691406 134.476562 160.285156 130.882812 160.285156 126.433594 C 160.285156 121.984375 156.691406 118.390625 152.242188 118.390625 L 111.453125 118.390625 C 107.003906 118.390625 103.410156 121.984375 103.410156 126.433594 C 103.410156 130.882812 107.003906 134.476562 111.453125 134.476562 Z M 111.453125 134.476562 " fill-opacity="1" fill-rule="nonzero"/><path fill="#00253b" d="M 111.453125 172.980469 L 176.3125 172.980469 C 180.761719 172.980469 184.355469 169.386719 184.355469 164.9375 C 184.355469 160.488281 180.761719 156.894531 176.3125 156.894531 L 111.453125 156.894531 C 107.003906 156.894531 103.410156 160.488281 103.410156 164.9375 C 103.410156 169.386719 107.003906 172.980469 111.453125 172.980469 Z M 111.453125 172.980469 " fill-opacity="1" fill-rule="nonzero"/><path fill="#00253b" d="M 207.574219 172.980469 L 232.503906 172.980469 C 236.953125 172.980469 240.546875 169.386719 240.546875 164.9375 C 240.546875 160.488281 236.953125 156.894531 232.503906 156.894531 L 207.574219 156.894531 C 203.125 156.894531 199.53125 160.488281 199.53125 164.9375 C 199.53125 169.386719 203.125 172.980469 207.574219 172.980469 Z M 207.574219 172.980469 " fill-opacity="1" fill-rule="nonzero"/><path fill="#00253b" d="M 176.257812 134.476562 L 238.777344 134.476562 C 243.226562 134.476562 246.820312 130.882812 246.820312 126.433594 C 246.820312 121.984375 243.226562 118.390625 238.777344 118.390625 L 176.257812 118.390625 C 171.808594 118.390625 168.214844 121.984375 168.214844 126.433594 C 168.269531 130.882812 171.863281 134.476562 176.257812 134.476562 Z M 176.257812 134.476562 " fill-opacity="1" fill-rule="nonzero"/></svg>